<?xml version="1.0" encoding="UTF-8"?>
<svg id="Camada_1" data-name="Camada 1" xmlns="http://www.w3.org/2000/svg" viewBox="0 0 113.39 113.39">
  <defs>
    <style>
      .cls-1 {
        fill: #ffd21f;
      }

      .cls-2 {
        fill: #403408;
      }
    </style>
  </defs>
  <circle class="cls-1" cx="56.69" cy="56.69" r="39.29"/>
  <g>
    <path class="cls-2" d="M78.73,62.67c-6.19-1.04-13.64-1.84-22.08-1.81-8.41.03-15.83.86-21.99,1.94-.93,0-1.57.95-1.22,1.81,1.83,4.48,7.96,15.75,23.16,15.75s21.46-11.35,23.35-15.87c.36-.87-.29-1.82-1.22-1.82ZM57.07,78.59c-7.07.16-12.18-2.67-14.12-3.87,2-1.25,7.04-4.04,14.03-4.03,6.62.01,11.44,2.53,13.47,3.75-1.93,1.26-6.69,4-13.37,4.15Z"/>
    <path class="cls-2" d="M78.53,40.89c-.65-1.11-2.07-1.49-3.19-.85l-8.67,5.03c-.72.42-1.16,1.18-1.16,2.02,0,.83.44,1.6,1.16,2.02l8.74,5.07c.37.21.77.32,1.17.32.8,0,1.58-.42,2.02-1.16.65-1.11.27-2.54-.85-3.19l-5.27-3.06,5.2-3.01c1.11-.65,1.49-2.07.85-3.19Z"/>
    <path class="cls-2" d="M34.86,53.32c.43.77,1.23,1.2,2.05,1.2.39,0,.79-.1,1.16-.31l8.87-5.03c.74-.42,1.2-1.2,1.2-2.05,0-.85-.46-1.63-1.19-2.05l-8.94-5.07c-1.13-.64-2.57-.25-3.21.89-.64,1.13-.25,2.57.89,3.21l5.33,3.02-5.26,2.98c-1.13.64-1.53,2.08-.89,3.21Z"/>
  </g>
</svg>